<?xml version="1.0" encoding="utf-8"?>
<!-- Generator: Adobe Illustrator 26.3.1, SVG Export Plug-In . SVG Version: 6.00 Build 0)  -->
<svg version="1.1" id="Layer_1" xmlns="http://www.w3.org/2000/svg" xmlns:xlink="http://www.w3.org/1999/xlink" x="0px" y="0px"
	 viewBox="0 0 468 585" style="enable-background:new 0 0 468 585;" xml:space="preserve">
<style type="text/css">
	.st0{fill:#47A8BD;}
	.st1{fill:#C64191;}
	.st2{fill:#F0F3BD;}
	.st3{fill:#152B68;}
</style>
<path class="st0" d="M439.6,45.3h-36.5V6.2c0-3.4-2.8-6.2-6.2-6.2s-6.2,2.8-6.2,6.2v39.1h-69.1V6.2c0-3.4-2.8-6.2-6.2-6.2
	s-6.2,2.8-6.2,6.2v39.1h-69.1V6.2c0-3.4-2.8-6.2-6.2-6.2c-3.4,0-6.2,2.8-6.2,6.2v39.1h-69.1V6.2c0-3.4-2.8-6.2-6.2-6.2
	s-6.2,2.8-6.2,6.2v39.1H77.2V6.2c0-3.4-2.8-6.2-6.2-6.2s-6.2,2.8-6.2,6.2v39.1H28.4c-7.9,0-14.4,6.4-14.4,14.4v68.2h440V59.6
	C454,51.7,447.5,45.3,439.6,45.3z M71.1,95.8c-9.7,0-17.6-7.9-17.6-17.6c0-7.5,4.7-13.9,11.4-16.4V45.7h12.3v16.1
	c6.7,2.5,11.4,8.9,11.4,16.4C88.6,87.9,80.8,95.8,71.1,95.8z M152.5,95.8c-9.7,0-17.6-7.9-17.6-17.6c0-7.5,4.8-13.9,11.4-16.4V45.7
	h12.3v16.1c6.7,2.5,11.4,8.9,11.4,16.4C170.1,87.9,162.2,95.8,152.5,95.8z M234,95.8c-9.7,0-17.6-7.9-17.6-17.6
	c0-7.5,4.7-13.9,11.4-16.4V45.7h12.3v16.1c6.7,2.5,11.4,8.9,11.4,16.4C251.6,87.9,243.7,95.8,234,95.8z M315.5,95.8
	c-9.7,0-17.6-7.9-17.6-17.6c0-7.5,4.7-13.9,11.4-16.4V45.7h12.3v16.1c6.7,2.5,11.4,8.9,11.4,16.4C333,87.9,325.2,95.8,315.5,95.8z
	 M396.9,95.8c-9.7,0-17.6-7.9-17.6-17.6c0-7.5,4.7-13.9,11.4-16.4V45.7h12.3v16.1c6.7,2.5,11.4,8.9,11.4,16.4
	C414.5,87.9,406.6,95.8,396.9,95.8z"/>
<path class="st0" d="M76.9,441.3h269.3c7.8,0,14.1-6.3,14.1-14s-6.3-14-14.1-14h-88.6c0,0,0,0,0,0s0,0,0,0H76.9
	c-7.8,0-14.1,6.3-14.1,14S69.1,441.3,76.9,441.3z"/>
<path class="st1" d="M207.4,355.7l10.3,45.2h28.7l-29.1-45.4C213.8,355.7,210.5,355.7,207.4,355.7z"/>
<path class="st1" d="M220.3,343c15.6-1.4,33.6-6.9,57.9-23.8c21.5-14.9,33.9-39.7,33.2-66.4c-0.2-9.1-1-15.3-1.9-21.9
	c-0.3-2.3-0.6-4.7-0.9-7.2c-0.4-3.2,1.8-6.2,5-6.8l18.4-3.3l-14.5-9.4c-1.8-1.2-2.8-3.1-2.8-5.3c0.2-14-8.8-26.7-21.9-30.8
	c-27.5-8.7-47.5,13.4-48.2,39.4c-0.2,8.5-3.2,16.9-8.8,25.2c14.9,3.4,25,14,27.4,29.2c2.9,18.6-7.2,43.8-31.5,53.9
	c-29.1,12.2-61.9,13.2-92.7,7.5L79,377.7c0.6,0.1,1.7,0.1,3.5-0.4c6.8-1.8,17-6.6,28.8-12.1c15.8-7.3,33.6-15.7,50.4-20.3
	c12.6-3.5,25.5-2.4,38.4-1.7C206.7,344.2,213.7,343.1,220.3,343z M282.6,198.4c0.4-4.3,4.2-7.5,8.5-7.1c4.3,0.4,7.5,4.2,7.2,8.5
	c-0.4,4.3-4.2,7.5-8.5,7.1C285.4,206.5,282.2,202.7,282.6,198.4z"/>
<path class="st2" d="M217.7,307.9c19.2-6.2,36.8-21.8,33.3-44.1c-2.2-14-13.9-19.7-27.1-20.1c-42.6-0.6-100,40.5-120.8,56.6
	C123,308,171.5,322.9,217.7,307.9z"/>
<path class="st3" d="M14,453.6c0,7.9,6.5,14.4,14.4,14.4h411.2c7.9,0,14.4-6.4,14.4-14.4V140.1H14V453.6z M366.8,297.3
	c1.4-3.1,5-4.5,8.1-3.1c1.2,0.6,9.2,4.3,15.3,11.1c5-8,13.4-18.5,25.3-22.6c3.2-1.1,6.7,0.6,7.9,3.8s-0.6,6.7-3.8,7.8
	c-12.2,4.3-21,20.1-23.3,25.8c-2.1,5.2-10,4.9-11.6-0.6c-2-7-11.4-12.6-14.8-14.1C366.8,304,365.4,300.4,366.8,297.3z M81.7,186.9
	c1.4-3.1,5-4.5,8.2-3.1c1.2,0.6,9.2,4.3,15.3,11.1c5-8,13.4-18.5,25.3-22.6c3.2-1.1,6.7,0.6,7.9,3.8c1.1,3.2-0.6,6.7-3.8,7.8
	c-12.2,4.3-21,20.1-23.3,25.8c-2.1,5.2-10,4.9-11.6-0.6c-2.1-7.1-11.6-12.7-14.8-14.1C81.7,193.6,80.3,190,81.7,186.9z M76.9,400.9
	H205l-10.4-45.8c-10.6-0.6-19.8-1.1-29.6,1.6c-15.8,4.4-33.2,12.5-48.5,19.6c-12.3,5.7-23,10.5-30.8,12.8c-20.3,6-29-8-18.1-17.9
	l56.6-51.1c-20.7-5.3-34.5-12-35.8-12.6c-3.9-1.9-4.6-7.4-1.3-10.2c3.3-2.8,77.2-64.6,134.2-65.8c7-8.3,10.7-16.5,10.9-24.3
	c0.7-25,11.8-38,21-44.6c12.2-8.6,28.4-11,43.3-6.3c17.2,5.4,29.3,21.3,30.4,39.3l24.7,16.1c4.6,3,3.1,10.2-2.3,11.2l-27.9,5.1
	c1.1,8.1,1.9,16.3,2.1,24.5c0.8,30.8-13.6,59.6-38.5,76.8c-21.6,15-39.4,21.7-54.5,24.5l30.2,47h85.2c14.6,0,26.4,11.8,26.4,26.4
	c0,14.5-11.8,26.4-26.4,26.4H76.9c-14.6,0-26.4-11.8-26.4-26.4C50.5,412.7,62.3,400.9,76.9,400.9z"/>
</svg>
